<?xml version="1.0" encoding="utf-8"?><svg xmlns="http://www.w3.org/2000/svg" xml:space="preserve" width="595.276" height="240.945" viewBox="0 0 595.276 240.945"><path fill="#195DAD" fill-rule="evenodd" d="m310.684 10.775 55 42.6 34.01 3.34-60.24-45.94h-28.77zm54.52 80.59-54.52 42.28h28.77l60.4-45.62-34.65 3.34zm68.03-31.47 127.96 12.39-200.12-61.35 72.16 48.96zm-.47 24.95-71.69 48.8 200.28-61.2-128.59 12.4z" clip-rule="evenodd"/><path fill="#231F20" fill-rule="evenodd" d="m185.755 191.823 4.29-20.03h22.73c5.56 0 11.12.8 9.06 10.17-2.07 9.7-9.06 9.86-15.1 9.86h-20.98zm-12.4-33.06-15.26 71.84h19.55l5.4-25.75h30.2c15.74 0 25.75-8.9 29.09-24.32 2.07-9.53-.32-21.77-20.66-21.77h-48.32zm96.48 31.79 3.82-18.12h24.79c4.77 0 10.02 1.9 8.43 9.06-1.43 6.67-7 9.06-11.29 9.06h-25.75zm-12.87-31.79-15.11 71.84h19.4l5.56-26.38h24.32c6.04 0 9.7 2.54 7.63 12.55-1.59 7.47-2.07 10.49-.95 13.83h21.3c-2.71-3.65-1.28-12.08-.48-15.57 1.59-7.16 2.54-17.97-5.72-19.24v-.16c8.74-3.02 13.51-8.58 15.42-17.32 1.43-7.31.79-19.55-19.08-19.55h-52.29zm85.67 0-15.26 71.84h67.4l3.02-13.67h-48.01l3.5-16.53h45.14l2.71-13.03h-45.15l3.18-14.94h47.53l3.02-13.67h-67.08zm122.24 20.82h21.61c3.02-20.35-18.28-22.73-33.06-22.73-22.57 0-37.03 6.52-40.37 22.41-3.18 14.62 8.1 18.44 20.18 20.35l17.17 2.7c7.47 1.27 11.6 2.7 10.49 8.26-1.43 6.2-8.26 8.9-17.33 8.9-8.42 0-17.96-1.74-16.05-11.6h-21.93c-4.45 22.42 17.64 24.64 35.28 24.64 28.14 0 39.42-10.65 42.28-24.16 2.87-13.04-6.04-17.96-18.75-20.03l-23.53-3.97c-4.92-.8-7.63-2.86-6.83-6.68 1.11-4.77 6.99-8.42 15.1-8.42 7.79 0 16.53.95 15.74 10.33zm81.86 0h21.61c3.02-20.35-18.44-22.73-33.06-22.73-22.57 0-37.03 6.52-40.37 22.41-3.18 14.62 8.1 18.44 20.18 20.35l17.33 2.7c7.47 1.27 11.44 2.7 10.33 8.26-1.27 6.2-8.11 8.9-17.32 8.9-8.43 0-17.97-1.74-16.06-11.6h-21.93c-4.45 22.42 17.8 24.64 35.28 24.64 28.14 0 39.58-10.65 42.28-24.16 2.87-13.04-6.03-17.96-18.59-20.03l-23.69-3.97c-4.77-.8-7.63-2.86-6.83-6.68 1.11-4.77 6.99-8.42 15.1-8.42 7.79 0 16.53.95 15.74 10.33zM16.945 71.173v-48h51.82c14.62 0 24.95 5.4 24.95 23.84 0 14.31-6.2 24.16-27.5 24.16h-49.27zm-12.72-59.6v122.87h12.72v-51.66h47.84c27.34 0 42.76-12.56 42.76-35.77 0-26.07-18.12-35.44-37.03-35.44H4.225zm241.13 76.13h-12.87c-4.3 23.37-18.6 38.15-48.01 38.15-37.35 0-51.66-25.43-51.66-52.77 0-35.92 21.14-52.93 51.66-52.93 22.26 0 43.24 9.38 47.05 32.9h12.72c-3.82-32.42-32.9-44.66-59.77-44.66-48 0-65.48 36.56-65.48 64.69 0 39.42 25.59 64.54 65.48 64.54 35.29 0 58.02-22.42 60.88-49.92zm19.71-76.13v122.87h12.72V11.573h-12.72zm-249.87 147.19-15.26 71.84h67.55l2.87-13.67h-48.01l3.5-16.53h45.14l2.86-13.03h-45.14l3.18-14.94h47.53l2.86-13.67h-67.08zm92.67 34.81-38.31 37.03h24.32l22.57-24.32 12.4 24.32h24.16l-22.57-37.03 35.29-34.81h-23.37l-20.5 22.41-11.13-22.41h-23.37l20.51 34.81zm479.24-30.84c.63.32.79.79.79 1.59 0 .79-.31 1.43-1.11 1.75-.48.16-1.11.16-1.91.16h-1.75v-3.82h1.75c1.12 0 1.91.16 2.23.32zm-2.07-1.75h-3.81v10.97h1.9v-4.29h1.6c.95 0 1.74 0 2.06.32.8.47 1.11 1.27 1.11 2.38v1.43s.16 0 .16.16h1.75v-.16c-.16-.16-.16-.32-.16-.64v-1.58c0-.48-.16-1.12-.63-1.59-.48-.64-.96-.96-1.91-1.12.79-.16 1.27-.32 1.59-.48.79-.47 1.11-1.27 1.11-2.22 0-1.43-.64-2.22-1.75-2.7-.63-.32-1.59-.48-3.02-.48zm-5.88-.48c1.75-1.74 3.82-2.54 6.2-2.54 2.38 0 4.29.8 6.04 2.54 1.59 1.59 2.54 3.66 2.54 6.04 0 2.39-.95 4.3-2.54 6.04-1.75 1.75-3.66 2.55-6.04 2.55s-4.45-.8-6.2-2.55c-1.59-1.74-2.38-3.65-2.38-6.04 0-2.38.79-4.45 2.38-6.04zm13.2 13.04c1.9-1.91 2.85-4.29 2.85-7 0-2.86-.95-5.08-2.85-6.99-2.07-1.91-4.3-3.02-7-3.02-2.86 0-5.09 1.11-6.99 3.02-2.07 1.91-3.02 4.13-3.02 6.99 0 2.71.95 5.09 3.02 7 1.9 1.91 4.13 2.86 6.99 2.86 2.7 0 4.93-.95 7-2.86z" clip-rule="evenodd"/></svg>